<?xml version="1.0" standalone="no"?><!DOCTYPE svg PUBLIC "-//W3C//DTD SVG 1.1//EN" "http://www.w3.org/Graphics/SVG/1.1/DTD/svg11.dtd"><svg t="1531291219507" class="icon" style="" viewBox="0 0 1024 1024" version="1.1" xmlns="http://www.w3.org/2000/svg" p-id="9419" xmlns:xlink="http://www.w3.org/1999/xlink" width="32" height="32"><defs><style type="text/css"></style></defs><path d="M692.755 573.25L502.81 684.395c-61.32-37.611-177.798-102.292-177.798-102.292L114.5 787.419l168.239 3.71 3.749 168.371 225.544-224.521c26.959 25.862 59.334 56.586 58.445 57.349l167.036 167.17 3.748-168.371 168.24-3.71-216.746-214.163v-0.004z" fill="#FFC800" p-id="9420"></path><path d="M649.788 593.481L502.81 684.394c-61.32-37.611-143.677-90.912-143.677-90.912l-197.14 194.721 120.745 2.924 3.1 95.702 193.348-192.193c26.959 25.862 60.283 0.503 59.395 1.265L738.25 898.209l3.009-107.083 114.516-2.923L649.79 593.481h-0.002z" fill="#FF3B06" p-id="9421"></path><path d="M622.741 696.738l64.848 10.694c2.015 0.349 4.335 0.55 6.702 0.55a40.974 40.974 0 0 0 24.306-7.941c9.23-6.787 15.531-17.332 16.649-29.382l9.505-62.636c2.16-13.842 11.08-25.203 23.216-30.733l57.353-28.737c9.842-4.909 17.285-13.613 20.695-24.059 1.282-3.803 2.022-8.185 2.022-12.739a40.975 40.975 0 0 0-4.708-19.13l-30.088-58.185c-2.847-5.386-4.52-11.773-4.52-18.55s1.672-13.164 4.626-18.771l30.091-58.185c2.898-5.49 4.599-11.999 4.599-18.906 0-4.553-0.739-8.934-2.105-13.028-3.327-10.157-10.77-18.863-20.61-23.772l-58.729-29.409c-12.073-6.15-20.543-17.872-22.053-31.687l-9.577-63.301c-1.865-12.057-8.726-22.22-18.359-28.465-4.817-3.617-13.22-6.566-22.31-6.566-2.368 0-4.688 0.199-6.945 0.585l-64.606 10.662c-1.978 0.344-4.256 0.54-6.579 0.54-11.228 0-21.386-4.589-28.7-11.995l-46.188-46.816c-7.458-7.579-17.824-12.275-29.285-12.276-11.455 0.004-21.816 4.703-29.265 12.276l-46.185 46.809c-7.317 7.411-17.476 12-28.704 12-2.324 0-4.602-0.196-6.818-0.575l-64.611-10.663c-2.014-0.348-4.332-0.549-6.697-0.549a40.983 40.983 0 0 0-24.308 7.942c-9.232 6.787-15.533 17.331-16.65 29.381l-9.505 62.633c-2.158 13.841-11.078 25.202-23.214 30.731l-57.354 28.739c-9.843 4.909-17.285 13.614-20.695 24.062-1.282 3.805-2.022 8.186-2.022 12.741a40.966 40.966 0 0 0 4.707 19.128l30.09 58.182c2.847 5.386 4.52 11.773 4.52 18.55a40.153 40.153 0 0 1-4.626 18.771l-30.092 58.189c-2.897 5.489-4.598 11.998-4.598 18.904 0 4.555 0.739 8.937 2.106 13.032 3.326 10.155 10.768 18.858 20.611 23.769l58.729 29.404c12.073 6.154 20.542 17.875 22.052 31.691l9.576 63.297c1.868 12.059 8.729 22.223 18.365 28.471 4.815 3.613 13.218 6.56 22.31 6.56a41.35 41.35 0 0 0 6.941-0.583l64.607-10.66c1.978-0.344 4.258-0.541 6.583-0.541 11.227 0 21.384 4.588 28.696 11.993L482.728 755c7.453 7.579 17.815 12.274 29.273 12.276 11.457-0.001 21.821-4.698 29.273-12.272l46.188-46.817c7.317-7.406 17.471-11.993 28.698-11.993 2.325 0 4.605 0.196 6.823 0.575l-0.242-0.031z" fill="#ffd700" p-id="9422"></path><path d="M511.991 653.495c-134.324 0-243.621-109.355-243.621-243.744 0-134.416 109.296-243.771 243.621-243.771 134.343 0 243.64 109.355 243.64 243.771-0.001 134.389-109.298 243.744-243.64 243.744z" fill="#C8921B" p-id="9423"></path><path d="M511.993 602.62c-106.292 0-192.777-86.531-192.777-192.87 0-106.365 86.485-192.896 192.777-192.896 106.303 0 192.791 86.533 192.791 192.896 0 106.339-86.488 192.87-192.791 192.87z" fill="#ffd700" p-id="9424"></path><path d="M511.773-24.671s-0.284 0.157-0.544 0.297c-0.007-0.223-0.007-0.538-0.007-0.538 0.4-0.296 0.532-0.391 0.939-0.623 0.113-0.043 0.189 0.033 0.188 0.063-0.060 1.635-0.087 2.155-0.077 4.118h-0.545c-0.008-2.783 0.049-3.319 0.049-3.319h0.001z" fill="#BD7039" p-id="9425"></path></svg>