<?xml version="1.0" standalone="no"?><!DOCTYPE svg PUBLIC "-//W3C//DTD SVG 1.1//EN" "http://www.w3.org/Graphics/SVG/1.1/DTD/svg11.dtd"><svg t="1531291231267" class="icon" style="" viewBox="0 0 1024 1024" version="1.1" xmlns="http://www.w3.org/2000/svg" p-id="2024" xmlns:xlink="http://www.w3.org/1999/xlink" width="32" height="32"><defs><style type="text/css"></style></defs><path d="M718.81294 582.077323l-217.324845 127.162128C431.33402 666.212478 298.064507 592.205471 298.064507 592.205471L57.209654 827.1177l192.485966 4.239761 4.290928 192.642539 258.056433-256.882644c30.842905 29.587248 67.882226 64.743596 66.866034 65.614471l191.1116 191.263056 4.288882-192.638446 192.486989-4.244877-247.983546-245.028097v-0.00614z" fill="#D6D8DA" p-id="2025"></path><path d="M669.651975 605.223573L501.488095 709.239451C431.33402 666.206338 337.103465 605.223573 337.103465 605.223573L111.54982 828.011089l138.1458 3.346372 3.546949 109.496969 221.218712-219.893467c30.842905 29.587248 68.9721 0.576149 67.954885 1.447024l228.447694 231.464545 3.441544-122.515071 131.0212-3.346372-235.674629-222.787516z m0 0" fill="#153E79" p-id="2026"></path><path d="M638.707758 723.362777l74.195305 12.234213c2.302549 0.402179 4.955086 0.63141 7.664931 0.63141a46.892186 46.892186 0 0 0 27.810703-9.084325c10.556933-7.76522 17.770565-19.831602 19.049759-33.617221l10.871103-71.666594c2.474473-15.83847 12.682442-28.834059 26.56528-35.163511l65.618564-32.875289c11.263048-5.620267 19.777364-15.576491 23.677372-27.52621 1.469538-4.351307 2.312783-9.367794 2.312783-14.574626a46.904466 46.904466 0 0 0-5.384896-21.88957l-34.426695-66.569261c-3.256317-6.167762-5.173061-13.474519-5.173061-21.228482a45.942512 45.942512 0 0 1 5.296887-21.475111l34.430789-66.569261c3.311578-6.280331 5.256976-13.732405 5.256976-21.630661a46.910606 46.910606 0 0 0-2.408979-14.906193c-3.803812-11.620199-12.318128-21.580516-23.581176-27.200783l-67.189414-33.647922c-13.815296-7.033521-23.507494-20.446639-25.233895-36.251338l-10.955018-72.423877c-2.134719-13.793806-9.983854-25.425262-21.006414-32.570328-5.512815-4.138449-15.128261-7.513475-25.523504-7.513475-2.709845 0-5.364428 0.228208-7.951471 0.670298l-73.915929 12.201465c-2.262639 0.390922-4.867078 0.615037-7.525755 0.615036-12.850272 0-24.468425-5.245719-32.837424-13.721147L545.499535 14.045551C536.963729 5.374662 525.103041 0 511.991813 0c-13.106111 0.00614-24.960659 5.378755-33.480091 14.044528l-52.844021 53.552182c-8.376163 8.481569-19.995339 13.732405-32.844588 13.732405-2.658677 0-5.263116-0.223091-7.79899-0.659041l-73.922069-12.201465c-2.306643-0.397062-4.955086-0.62527-7.663908-0.62527a46.843065 46.843065 0 0 0-27.80968 9.089441c-10.56512 7.764197-17.771588 19.827509-19.051805 33.615175l-10.87622 71.658407c-2.47038 15.837446-12.669138 28.833035-26.558117 35.162488l-65.621634 32.876312c-11.262025 5.621291-19.775318 15.581608-23.676348 27.530303-1.468515 4.35847-2.312783 9.369841-2.312783 14.582813a46.795991 46.795991 0 0 0 5.385919 21.881383l34.423625 66.569261c3.25734 6.162646 5.173061 13.470426 5.173061 21.224389a45.894415 45.894415 0 0 1-5.295864 21.475111l-34.429765 66.574378c-3.314648 6.279308-5.257999 13.726264-5.257999 21.632707 0 5.210925 0.844268 10.222296 2.406931 14.909263 3.805858 11.620199 12.320174 21.576423 23.581176 27.19669l67.195555 33.640759c13.815296 7.039661 23.503401 20.446639 25.228778 36.257478l10.956042 72.420806c2.139836 13.796876 9.987948 25.424239 21.016647 32.575446 5.507698 4.133332 15.122121 7.501194 25.524528 7.501194a46.791897 46.791897 0 0 0 7.93919-0.663134l73.921046-12.196348c2.262639-0.396038 4.871171-0.61913 7.530871-0.61913 12.843109 0 24.462285 5.250836 32.832308 13.721147l52.84402 53.564463c8.52455 8.670889 20.385237 14.043505 33.491349 14.043504 13.112251 0 24.966799-5.372615 33.491348-14.039411l52.851184-53.564462c8.369-8.474405 19.987152-13.719101 32.831284-13.719101 2.660724 0 5.268233 0.224115 7.805131 0.653924l-0.270166-0.035818z m0 0" fill="#D6D8DA" p-id="2027"></path><path d="M511.991813 673.887643c-153.681357 0-278.731279-125.117464-278.731279-278.876596 0-153.786762 125.043782-278.906273 278.731279-278.906273 153.711034 0 278.759933 125.119511 278.759933 278.906273-0.00614 153.760155-125.055039 278.876596-278.759933 278.876596z m0 0" fill="#9EA0A3" p-id="2028"></path><path d="M511.997953 615.680217c-121.614519 0-220.565812-99.005531-220.565811-220.66917 0-121.698434 98.950269-220.697824 220.565811-220.697824 121.620659 0 220.576045 99.005531 220.576045 220.697824 0 121.66364-98.955386 220.66917-220.576045 220.66917z m0 0" fill="#DDDFE0" p-id="2029"></path></svg>