<?xml version="1.0" standalone="no"?><!DOCTYPE svg PUBLIC "-//W3C//DTD SVG 1.1//EN" "http://www.w3.org/Graphics/SVG/1.1/DTD/svg11.dtd"><svg t="1531291247346" class="icon" style="" viewBox="0 0 1024 1024" version="1.1" xmlns="http://www.w3.org/2000/svg" p-id="2003" xmlns:xlink="http://www.w3.org/1999/xlink" width="32" height="32"><defs><style type="text/css"></style></defs><path d="M691.674 571.62L502.577 682.205c-61.044-37.419-177.003-101.777-177.003-101.777L116.001 784.711l167.487 3.691 3.732 167.526 224.535-223.393c26.839 25.732 59.069 56.303 58.185 57.062l166.29 166.33 3.732-167.525 167.488-3.69L691.674 571.62z" fill="#FFC900" p-id="2004"></path><path d="M648.9 591.75l-146.323 90.454c-61.044-37.419-143.035-90.454-143.035-90.454L163.28 785.494l120.206 2.908 3.086 95.222 192.485-191.228c26.838 25.732 60.014 0.499 59.13 1.257l198.777 201.293 2.997-106.545 114.004-2.908L648.9 591.75z" fill="#FF3C07" p-id="2005"></path><path d="M621.973 694.488l64.56 10.64a40.986 40.986 0 0 0 30.752-7.274 41.009 41.009 0 0 0 16.407-27.036l9.745-64.6a40.218 40.218 0 0 1 21.743-29.912l58.467-29.259c9.797-4.886 17.207-13.544 20.601-23.939a40.927 40.927 0 0 0-2.566-31.486l-30.062-58.116a40.108 40.108 0 0 1 0-36.913l30.062-58.113a40.93 40.93 0 0 0 2.566-31.485c-3.394-10.395-10.804-19.056-20.601-23.941l-58.467-29.26a40.21 40.21 0 0 1-21.743-29.938l-9.745-64.573a41.002 41.002 0 0 0-16.407-27.033 40.98 40.98 0 0 0-30.752-7.277l-64.56 10.643c-12.88 2.115-25.964-2.119-35.125-11.402l-45.98-46.577a40.906 40.906 0 0 0-29.15-12.214 40.905 40.905 0 0 0-29.137 12.213l-45.98 46.577c-9.16 9.283-22.244 13.517-35.125 11.402l-64.56-10.643c-10.802-1.79-21.876 0.842-30.751 7.277a41.014 41.014 0 0 0-16.409 27.033l-9.745 64.599a40.215 40.215 0 0 1-21.74 29.912l-58.467 29.26c-9.8 4.885-17.21 13.546-20.603 23.94a40.921 40.921 0 0 0 2.566 31.486l30.061 58.113a40.108 40.108 0 0 1 0 36.913l-30.061 58.116a40.922 40.922 0 0 0-2.566 31.486c3.394 10.395 10.803 19.053 20.603 23.94l58.466 29.258a40.22 40.22 0 0 1 21.741 29.94l9.745 64.571a41.024 41.024 0 0 0 16.409 27.036c8.876 6.431 19.95 9.063 30.751 7.274l64.56-10.64c12.88-2.118 25.963 2.117 35.125 11.399l45.98 46.578a40.891 40.891 0 0 0 29.138 12.215 40.902 40.902 0 0 0 29.15-12.215l45.98-46.578c9.16-9.28 22.243-13.515 35.124-11.397z" fill="#ec9e07" p-id="2006"></path><path d="M511.718 651.463c-133.726 0-242.534-108.806-242.534-242.52 0-133.74 108.808-242.547 242.534-242.547 133.742 0 242.55 108.807 242.55 242.548 0 133.713-108.81 242.52-242.55 242.52z" fill="#ad7302" p-id="2007"></path><path d="M511.719 600.845c-105.817 0-191.917-86.097-191.917-191.904 0-105.83 86.1-191.928 191.917-191.928 105.829 0 191.93 86.098 191.93 191.928 0 105.807-86.101 191.904-191.93 191.904z" fill="#ec9e07" p-id="2008"></path><path d="M511.044-22.568c0.082 0.271 0.157 0.38 0.318 0.494 0.177 0.125 0.405 0.188 0.67 0.188 0.604 0 0.982-0.312 0.982-0.808 0-0.515-0.369-0.796-1.061-0.796-0.146 0-0.276 0.010-0.415 0.026v-0.412c0.12 0.021 0.245 0.032 0.386 0.032 0.342 0 0.598-0.078 0.759-0.24 0.129-0.126 0.208-0.318 0.208-0.504 0-0.446-0.312-0.71-0.837-0.71-0.318 0-0.547 0.087-0.692 0.276-0.072 0.093-0.11 0.178-0.167 0.369l-0.432-0.093c0.088-0.263 0.151-0.386 0.281-0.52 0.23-0.249 0.584-0.38 1.034-0.38 0.756 0 1.232 0.397 1.232 1.020 0 0.318-0.136 0.598-0.365 0.758-0.136 0.098-0.249 0.141-0.488 0.188 0.301 0.032 0.463 0.087 0.64 0.225 0.23 0.178 0.349 0.453 0.349 0.785 0 0.701-0.541 1.14-1.41 1.14-0.526 0-0.918-0.147-1.166-0.427-0.11-0.125-0.172-0.24-0.264-0.504l0.438-0.11z" fill="#924006" p-id="2009"></path></svg>